<svg width="141" height="37" viewBox="0 0 141 37" fill="none" xmlns="http://www.w3.org/2000/svg">
<path d="M22.912 2.304V8.88H9.184V15.984H19.456V22.368H9.184V36H0.976V2.304H22.912ZM37.834 0.48V36H29.626V0.48H37.834ZM44.5502 22.56C44.5502 19.808 45.0622 17.392 46.0862 15.312C47.1422 13.232 48.5662 11.632 50.3582 10.512C52.1502 9.392 54.1502 8.832 56.3583 8.832C58.2462 8.832 59.8942 9.216 61.3022 9.984C62.7422 10.752 63.8463 11.76 64.6142 13.008V9.216H72.8223V36H64.6142V32.208C63.8143 33.456 62.6943 34.464 61.2543 35.232C59.8463 36 58.1982 36.384 56.3102 36.384C54.1342 36.384 52.1502 35.824 50.3582 34.704C48.5662 33.552 47.1422 31.936 46.0862 29.856C45.0622 27.744 44.5502 25.312 44.5502 22.56ZM64.6142 22.608C64.6142 20.56 64.0382 18.944 62.8863 17.76C61.7663 16.576 60.3903 15.984 58.7582 15.984C57.1262 15.984 55.7342 16.576 54.5823 17.76C53.4622 18.912 52.9022 20.512 52.9022 22.56C52.9022 24.608 53.4622 26.24 54.5823 27.456C55.7342 28.64 57.1262 29.232 58.7582 29.232C60.3903 29.232 61.7663 28.64 62.8863 27.456C64.0382 26.272 64.6142 24.656 64.6142 22.608ZM93.2084 28.32L99.0164 9.216H107.752L98.2484 36H88.1204L78.6164 9.216H87.4004L93.2084 28.32ZM111.975 22.56C111.975 19.808 112.487 17.392 113.511 15.312C114.567 13.232 115.991 11.632 117.783 10.512C119.575 9.392 121.575 8.832 123.783 8.832C125.671 8.832 127.319 9.216 128.727 9.984C130.167 10.752 131.271 11.76 132.039 13.008V9.216H140.247V36H132.039V32.208C131.239 33.456 130.119 34.464 128.679 35.232C127.271 36 125.623 36.384 123.735 36.384C121.559 36.384 119.575 35.824 117.783 34.704C115.991 33.552 114.567 31.936 113.511 29.856C112.487 27.744 111.975 25.312 111.975 22.56ZM132.039 22.608C132.039 20.56 131.463 18.944 130.311 17.76C129.191 16.576 127.815 15.984 126.183 15.984C124.551 15.984 123.159 16.576 122.007 17.76C120.887 18.912 120.327 20.512 120.327 22.56C120.327 24.608 120.887 26.24 122.007 27.456C123.159 28.64 124.551 29.232 126.183 29.232C127.815 29.232 129.191 28.64 130.311 27.456C131.463 26.272 132.039 24.656 132.039 22.608Z" fill="#FFBC25"/>
</svg>
