<svg width="30" height="30" viewBox="0 0 30 30" fill="none" xmlns="http://www.w3.org/2000/svg">
<path d="M10.8745 29.7634C8.43191 29.7634 6.12823 29.0722 4.21254 27.7643C3.85469 27.5201 3.51062 27.2533 3.18948 26.9719C0.953302 25.0117 -0.171996 22.401 0.0213431 19.6206C0.167494 17.5191 1.12174 15.4933 2.70974 13.9161C4.81287 11.8275 7.7123 10.677 10.8752 10.677C11.4185 10.677 11.9671 10.7131 12.5071 10.784L13.346 10.8945V17.4976L12.0542 17.1192C11.678 17.0088 11.2868 16.9529 10.8909 16.9529C9.8908 16.9529 8.95425 17.3006 8.25364 17.9313C7.55631 18.5591 7.18078 19.3892 7.1952 20.2699C7.2142 21.4053 7.88859 22.4342 8.99882 23.0236C9.51002 23.2945 10.092 23.4532 10.6832 23.4823C11.1498 23.505 11.6105 23.4509 12.0536 23.3213C13.5682 22.8777 14.586 21.6314 14.586 20.2205L14.5925 13.3726V0H21.7074L21.7159 0.863837C21.7199 1.25506 21.7651 1.64629 21.8503 2.02531C22.1845 3.5158 23.127 4.84411 24.5039 5.76492C25.7262 6.58283 27.1851 7.01475 28.7213 7.01475C28.7574 7.01475 28.7574 7.01475 29.0857 7.0351L30 7.09207V12.4402V13.3122L29.6723 13.3116H29.0189C29.0136 13.3116 29.0084 13.3116 29.0025 13.3116H28.6886C28.6873 13.3116 28.6853 13.3116 28.6833 13.3116C26.7886 13.3116 25.0132 12.9913 23.2535 12.3326C22.7291 12.1362 22.2186 11.9118 21.7258 11.6612L21.748 20.2537C21.7362 22.7952 20.6037 25.1792 18.5596 26.9714C16.9008 28.4252 14.8075 29.3542 12.5058 29.6565C11.969 29.7274 11.4205 29.7634 10.8745 29.7634V29.7634ZM10.8745 12.421C8.27986 12.421 5.90081 13.3645 4.17583 15.0776C2.88079 16.3641 2.10219 18.0156 1.98291 19.7276C1.82562 21.9976 2.74447 24.1299 4.57103 25.7308C4.83515 25.9622 5.11762 26.1814 5.41124 26.3819C6.98023 27.4533 8.86971 28.0195 10.8745 28.0195C11.3241 28.0195 11.7757 27.9898 12.2181 27.9317C14.1036 27.6841 15.8188 26.9231 17.178 25.7314C18.848 24.2677 19.7727 22.322 19.7825 20.2525L19.7517 8.2547L21.3397 9.34118C22.1596 9.90215 23.0614 10.3684 24.0189 10.727C25.3278 11.2171 26.647 11.4891 28.0332 11.5537V8.73719C26.32 8.62326 24.7019 8.08321 23.3197 7.15834C21.5567 5.97943 20.3501 4.27733 19.9215 2.36654C19.8756 2.16134 19.8382 1.95381 19.8107 1.74453H16.558V13.3732L16.5515 20.2211C16.5515 22.3854 14.9917 24.2967 12.6696 24.9769C11.9926 25.1751 11.2881 25.2576 10.575 25.2233C9.66666 25.1792 8.77271 24.9356 7.98887 24.5199C6.28945 23.6183 5.25722 22.0389 5.22838 20.2955C5.2061 18.9445 5.78218 17.6703 6.85177 16.707C7.92464 15.7409 9.35862 15.209 10.8896 15.209C11.0535 15.209 11.216 15.2154 11.3785 15.2276V12.4332C11.2107 12.4251 11.0423 12.421 10.8745 12.421V12.421Z" fill="black"/>
</svg>
