<svg width="28" height="29" viewBox="0 0 28 29" fill="none" xmlns="http://www.w3.org/2000/svg">
<g clip-path="url(#clip0_0_414)">
<path d="M20.9065 29H6.43991C2.92072 29 0.0576172 25.9509 0.0576172 22.2031V6.79688C0.0576172 3.04908 2.92072 0 6.43991 0H20.9065C24.4257 0 27.2888 3.04908 27.2888 6.79688V22.2031C27.2888 25.9509 24.4257 29 20.9065 29ZM6.43991 2.26562C4.09378 2.26562 2.18505 4.29834 2.18505 6.79688V22.2031C2.18505 24.7017 4.09378 26.7344 6.43991 26.7344H20.9065C23.2526 26.7344 25.1613 24.7017 25.1613 22.2031V6.79688C25.1613 4.29834 23.2526 2.26562 20.9065 2.26562H6.43991ZM21.1724 5.09766C20.438 5.09766 19.8427 5.73163 19.8427 6.51367C19.8427 7.29571 20.438 7.92969 21.1724 7.92969C21.9067 7.92969 22.502 7.29571 22.502 6.51367C22.502 5.73163 21.9067 5.09766 21.1724 5.09766ZM13.6732 21.8633C9.86067 21.8633 6.75903 18.5602 6.75903 14.5C7.13878 4.73159 20.209 4.73442 20.5873 14.5001C20.5873 18.5602 17.4857 21.8633 13.6732 21.8633ZM13.6732 9.40234C11.0338 9.40234 8.88646 11.6892 8.88646 14.5C9.14941 21.2627 18.1979 21.2607 18.4599 14.4999C18.4599 11.6892 16.3126 9.40234 13.6732 9.40234Z" fill="#121212"/>
</g>
<defs>
<clipPath id="clip0_0_414">
<rect width="27.2311" height="29" fill="white" transform="translate(0.0576172)"/>
</clipPath>
</defs>
</svg>
