<svg width="28" height="29" viewBox="0 0 28 29" fill="none" xmlns="http://www.w3.org/2000/svg">
<g clip-path="url(#clip0_0_416)">
<path d="M18.327 13.1967L12.311 9.6912C11.9651 9.48964 11.5562 9.49716 11.2172 9.71111C10.8779 9.92528 10.6755 10.3036 10.6755 10.7236V17.6744C10.6755 18.0924 10.8766 18.47 11.2136 18.6844C11.3896 18.7964 11.5847 18.8526 11.7802 18.8526C11.9593 18.8526 12.1388 18.8055 12.3039 18.7108L18.3201 15.2657C18.6773 15.061 18.9002 14.6656 18.9018 14.2335C18.9033 13.8014 18.6831 13.4043 18.327 13.1967ZM12.2713 16.8V11.605L16.7676 14.2251L12.2713 16.8Z" fill="#121212"/>
<path d="M27.5508 8.69588L27.5495 8.68261C27.5265 8.44919 27.2969 6.37296 26.3491 5.31692C25.2536 4.07481 24.0116 3.92391 23.4143 3.85156C23.3649 3.84559 23.3196 3.84006 23.2791 3.8343L23.2315 3.82899C19.6315 3.55022 14.1947 3.51216 14.1403 3.51194L14.1355 3.51172L14.1308 3.51194C14.0763 3.51216 8.63955 3.55022 5.00714 3.82899L4.95915 3.8343C4.9205 3.83984 4.87791 3.84492 4.83158 3.85068C4.24114 3.92325 3.01247 4.07436 1.91386 5.36139C1.01116 6.40614 0.750213 8.4379 0.723413 8.66624L0.720297 8.69588C0.712194 8.79301 0.52002 11.1053 0.52002 13.4267V15.5967C0.52002 17.9181 0.712194 20.2304 0.720297 20.3278L0.721751 20.3424C0.744812 20.5721 0.974175 22.6102 1.9176 23.6667C2.94765 24.8672 4.25008 25.0261 4.95063 25.1115C5.06136 25.125 5.15672 25.1365 5.22175 25.1487L5.2847 25.158C7.3633 25.3686 13.8804 25.4724 14.1567 25.4766L14.165 25.4768L14.1733 25.4766C14.2278 25.4763 19.6643 25.4383 23.2643 25.1595L23.3119 25.1542C23.3574 25.1478 23.4085 25.142 23.4646 25.1358C24.0517 25.0695 25.2738 24.9316 26.3572 23.6621C27.2599 22.6171 27.5211 20.5853 27.5477 20.3572L27.5508 20.3276C27.5589 20.2302 27.7513 17.9181 27.7513 15.5967V13.4267C27.751 11.1053 27.5589 8.79324 27.5508 8.69588ZM26.1553 15.5967C26.1553 17.7453 25.9791 19.9581 25.9625 20.1612C25.8947 20.7207 25.6195 22.0062 25.1796 22.5153C24.5015 23.3098 23.8049 23.3886 23.2963 23.4459C23.2348 23.4528 23.1779 23.4594 23.1264 23.4663C19.6444 23.7344 14.4129 23.7756 14.1719 23.7771C13.9016 23.7729 7.47985 23.6683 5.46462 23.4689C5.36136 23.451 5.2498 23.4373 5.13221 23.4231C4.53574 23.3503 3.71926 23.2508 3.09142 22.5153L3.07667 22.4985C2.64454 22.019 2.37715 20.817 2.30922 20.1678C2.29654 20.0143 2.1158 17.7754 2.1158 15.5967V13.4267C2.1158 11.2806 2.29156 9.07024 2.30859 8.86293C2.38941 8.20382 2.66988 6.99622 3.09142 6.50814C3.79031 5.68951 4.52722 5.59879 5.01462 5.53883C5.06116 5.53308 5.10458 5.52777 5.14467 5.52224C8.67736 5.25275 13.9465 5.21271 14.1355 5.21116C14.3246 5.21249 19.5918 5.25275 23.0932 5.52224C23.1362 5.52799 23.1831 5.53374 23.2336 5.53994C23.7349 5.60078 24.4926 5.69283 25.188 6.4827L25.1944 6.49C25.6265 6.96945 25.8939 8.19254 25.9619 8.85474C25.9739 8.99966 26.1553 11.2434 26.1553 13.4267V15.5967Z" fill="#121212"/>
</g>
<defs>
<clipPath id="clip0_0_416">
<rect width="27.2311" height="29" fill="white" transform="translate(0.52002)"/>
</clipPath>
</defs>
</svg>
